<svg width="30" height="30" viewBox="0 0 30 30" fill="none" xmlns="http://www.w3.org/2000/svg">
<path fill-rule="evenodd" clip-rule="evenodd" d="M4.4919 12.5C4.4919 8.35787 7.51494 5 11.244 5C14.9732 5 17.9962 8.35787 17.9962 12.5C17.9962 16.6422 14.9732 20 11.244 20C7.51494 20 4.4919 16.6422 4.4919 12.5Z" fill="white"/>
<path fill-rule="evenodd" clip-rule="evenodd" d="M3.95346 22.8322C5.80259 21.9407 8.22877 21.6667 11.244 21.6667C14.2618 21.6667 16.6897 21.9412 18.5395 22.8347C20.5545 23.8078 21.7792 25.4655 22.4211 27.806C22.7219 28.903 21.9801 30 20.9578 30H1.53298C0.509476 30 -0.23392 28.9013 0.067856 27.8023C0.710615 25.4615 1.93716 23.8043 3.95346 22.8322Z" fill="white"/>
<path d="M25.4986 1.66667C25.4986 0.7462 24.8268 0 23.9981 0C23.1694 0 22.4976 0.7462 22.4976 1.66667V5H19.4967C18.668 5 17.9962 5.7462 17.9962 6.66667C17.9962 7.58713 18.668 8.33333 19.4967 8.33333H22.4976V11.6667C22.4976 12.5871 23.1694 13.3333 23.9981 13.3333C24.8268 13.3333 25.4986 12.5871 25.4986 11.6667V8.33333H28.4995C29.3282 8.33333 30 7.58713 30 6.66667C30 5.7462 29.3282 5 28.4995 5H25.4986V1.66667Z" fill="white"/>
</svg>
