<svg width="175" height="178" viewBox="0 0 175 178" fill="none" xmlns="http://www.w3.org/2000/svg">
<path d="M88.781 93.1H64.981V53.9H88.781C99.12 54.285 107.415 62.083 108.381 71.4C109.494 82.068 100.758 92.519 88.781 93.1Z" stroke="black" stroke-miterlimit="10"/>
<path d="M64.981 93.1V126.7" stroke="black" stroke-miterlimit="10"/>
<path d="M43.281 57.4H64.981" stroke="black" stroke-miterlimit="10"/>
<path d="M43.281 65.8H64.981" stroke="black" stroke-miterlimit="10"/>
<path d="M85.631 54.25H65.331V61.95H85.631V54.25Z" stroke="black" stroke-miterlimit="10"/>
<path d="M65.3333 93.4523L65.3333 113.752L73.0333 113.752L73.0333 93.4523L65.3333 93.4523Z" stroke="black" stroke-miterlimit="10"/>
<path d="M56.9333 71.7523L56.9333 92.0523L64.6333 92.0523L64.6333 71.7523L56.9333 71.7523Z" stroke="black" stroke-miterlimit="10"/>
<path d="M119.231 87.85V79.45" stroke="black" stroke-miterlimit="10"/>
<path d="M161.931 79.45H119.231" stroke="black" stroke-miterlimit="10"/>
<path d="M161.931 152.25V79.45" stroke="black" stroke-miterlimit="10"/>
<path d="M119.231 152.25H161.931" stroke="black" stroke-miterlimit="10"/>
<path d="M119.231 103.95H161.931" stroke="black" stroke-miterlimit="10"/>
<path d="M119.231 152.25V145.95" stroke="black" stroke-miterlimit="10"/>
<path d="M140.77 73.024C139.405 67.473 134.701 51.387 119.364 38.528C116.011 35.714 100.464 23.254 77.483 23.352C75.194 23.359 39.774 24.136 21.847 54.544C20.573 56.707 6.195 82.082 17.731 110.25C26.054 130.564 42.679 139.713 47.831 142.45C52.633 144.998 72.702 154.91 97.531 148.05C119.616 141.946 131.824 126.35 136.675 118.783" stroke="black" stroke-miterlimit="10"/>
<path d="M138.831 115.15C138.432 117.229 138.222 119.994 138.572 121.989L136.353 119.231L132.881 118.531C134.813 117.922 137.172 116.466 138.831 115.15Z" fill="black"/>
<path d="M28.3086 177.5V160.436C29.6366 160.308 30.9246 160.244 32.1726 160.244C33.8526 160.244 35.1966 160.636 36.2046 161.42C37.2286 162.204 37.7406 163.388 37.7406 164.972C37.7406 166.54 37.0446 167.836 35.6526 168.86C34.2766 169.868 32.6286 170.372 30.7086 170.372C30.6286 170.372 30.5406 170.372 30.4446 170.372V169.58C30.5086 169.58 30.5646 169.58 30.6126 169.58C32.1966 169.58 33.5726 169.164 34.7406 168.332C35.9086 167.5 36.4926 166.42 36.4926 165.092C36.4926 163.748 36.0846 162.78 35.2686 162.188C34.4526 161.58 33.3566 161.276 31.9806 161.276C31.2606 161.276 30.4206 161.308 29.4606 161.372V177.5H28.3086ZM41.9659 177.5V161.924H43.0699V177.5H41.9659ZM48.8331 177.5V161.924H49.9371V176.492H57.0891V177.5H48.8331ZM60.3644 177.5V161.924H61.4684V176.492H68.6204V177.5H60.3644ZM72.6636 172.1L70.4316 177.5H69.3036L75.8316 161.828H76.4796L83.0556 177.5H81.8316L79.5756 172.1H72.6636ZM76.0956 163.604C75.8556 164.324 75.6396 164.924 75.4476 165.404L73.0476 171.164H79.1916L76.8156 165.428C76.4476 164.532 76.2076 163.924 76.0956 163.604ZM86.2159 177.5V161.996C87.5919 161.884 88.7599 161.828 89.7199 161.828C91.1919 161.828 92.4079 162.212 93.3679 162.98C94.3279 163.732 94.8079 164.812 94.8079 166.22C94.8079 167.164 94.5359 168.036 93.9919 168.836C93.4479 169.636 92.8319 170.284 92.1439 170.78C94.0479 173.308 95.2239 174.82 95.6719 175.316C96.5839 176.26 97.5759 176.796 98.6479 176.924L98.6239 177.668C97.7279 177.652 96.9999 177.524 96.4399 177.284C95.8799 177.028 95.3199 176.604 94.7599 176.012C94.2159 175.42 93.0079 173.828 91.1359 171.236C89.8399 171.236 88.5679 171.196 87.3199 171.116V177.5H86.2159ZM90.5359 170.324C91.1599 170.324 91.8319 169.908 92.5519 169.076C93.2719 168.244 93.6319 167.276 93.6319 166.172C93.6319 165.068 93.2559 164.228 92.5039 163.652C91.7519 163.076 90.7759 162.788 89.5759 162.788C88.9359 162.788 88.1839 162.82 87.3199 162.884V170.204C88.4719 170.284 89.5439 170.324 90.5359 170.324ZM108.698 160.916C110.266 160.324 111.714 160.028 113.042 160.028C114.386 160.028 115.474 160.348 116.306 160.988C117.138 161.612 117.554 162.396 117.554 163.34C117.554 164.284 117.242 165.14 116.618 165.908C116.01 166.676 115.274 167.292 114.41 167.756C115.594 168.076 116.57 168.62 117.338 169.388C118.106 170.14 118.49 171.116 118.49 172.316C118.49 173.9 117.898 175.22 116.714 176.276C115.53 177.332 114.098 177.86 112.418 177.86C110.738 177.86 109.226 177.524 107.882 176.852L108.266 175.964C109.354 176.524 110.666 176.804 112.202 176.804C113.738 176.804 114.962 176.388 115.874 175.556C116.786 174.708 117.242 173.628 117.242 172.316C117.242 171.468 116.93 170.732 116.306 170.108C115.682 169.484 114.962 169.036 114.146 168.764C113.33 168.492 112.53 168.356 111.746 168.356C111.698 168.356 111.65 168.356 111.602 168.356V167.54C112.77 167.476 113.85 167.02 114.842 166.172C115.834 165.308 116.33 164.404 116.33 163.46C116.33 162.756 116.026 162.188 115.418 161.756C114.826 161.308 113.946 161.084 112.778 161.084C111.61 161.084 110.338 161.324 108.962 161.804L108.698 160.916ZM123.816 171.116C123.816 173.084 124.216 174.516 125.016 175.412C125.816 176.292 126.824 176.732 128.04 176.732C129.272 176.732 130.28 176.3 131.064 175.436C131.848 174.572 132.24 173.54 132.24 172.34C132.24 171.14 131.912 170.164 131.256 169.412C130.6 168.644 129.72 168.26 128.616 168.26C127.528 168.26 126.392 168.548 125.208 169.124L124.896 168.38C126.272 167.66 127.648 167.3 129.024 167.3C130.416 167.3 131.504 167.772 132.288 168.716C133.072 169.644 133.464 170.844 133.464 172.316C133.464 173.772 132.944 175.052 131.904 176.156C130.864 177.244 129.6 177.788 128.112 177.788C126.608 177.788 125.344 177.324 124.32 176.396C123.152 175.356 122.568 173.596 122.568 171.116C122.568 169.932 122.736 168.804 123.072 167.732C123.408 166.644 123.808 165.732 124.272 164.996C124.736 164.244 125.328 163.508 126.048 162.788C126.784 162.052 127.416 161.484 127.944 161.084C128.488 160.668 129.12 160.22 129.84 159.74L130.344 160.508C129.512 161.052 128.776 161.604 128.136 162.164C127.496 162.708 126.816 163.42 126.096 164.3C124.576 166.14 123.816 168.412 123.816 171.116ZM143.005 177.788C141.229 177.788 139.789 176.996 138.685 175.412C137.597 173.812 137.053 171.636 137.053 168.884C137.053 166.116 137.573 163.956 138.613 162.404C139.669 160.836 141.133 160.052 143.005 160.052C144.877 160.052 146.333 160.836 147.373 162.404C148.413 163.956 148.933 166.116 148.933 168.884C148.933 171.636 148.389 173.812 147.301 175.412C146.213 176.996 144.781 177.788 143.005 177.788ZM139.549 163.148C138.717 164.508 138.301 166.428 138.301 168.908C138.301 171.388 138.717 173.316 139.549 174.692C140.381 176.052 141.533 176.732 143.005 176.732C144.493 176.732 145.645 176.052 146.461 174.692C147.277 173.316 147.685 171.388 147.685 168.908C147.685 166.428 147.277 164.508 146.461 163.148C145.645 161.788 144.493 161.108 143.005 161.108C141.533 161.108 140.381 161.788 139.549 163.148Z" fill="#404565"/>
</svg>
