<svg width="30" height="30" viewBox="0 0 30 30" fill="none" xmlns="http://www.w3.org/2000/svg">
<path fill-rule="evenodd" clip-rule="evenodd" d="M10.9338 22.0882L21.9059 11.1168C24.0846 12.2435 26.6758 12.0335 28.3407 10.3706C29.6232 9.08632 30.0563 7.24712 29.6701 5.47167L26.8408 8.29515L24.3209 8.78635L21.2722 5.76976L21.7972 3.17314L24.6002 0.40778C22.8247 0.0196925 20.9816 0.449026 19.701 1.7314C18.0342 3.39624 17.8279 5.98725 18.9548 8.16766L7.98263 19.1391C5.80207 18.0142 3.2109 18.2242 1.54596 19.8853C0.263496 21.1714 -0.169615 23.0087 0.218497 24.7842L3.04591 21.9626L5.56395 21.4695L8.61636 24.4861L8.0895 27.0827L5.28646 29.85C7.06016 30.2362 8.90322 29.8087 10.1857 28.5245C11.8488 26.8596 12.0569 24.2686 10.9338 22.0882Z" fill="white"/>
<path fill-rule="evenodd" clip-rule="evenodd" d="M26.4882 23.0913L23.0571 21.9701L18.6772 17.5906L17.5898 18.678L21.9696 23.0538L23.164 26.5635L28.9144 30L30 28.9145L26.4882 23.0913Z" fill="white"/>
<path fill-rule="evenodd" clip-rule="evenodd" d="M13.6824 9.54193L4.6846 0.51092C3.92899 -0.246507 2.60154 -0.152766 1.72594 0.732149L0.726595 1.72955C-0.149002 2.61447 -0.248374 3.93997 0.510977 4.70114L9.50507 13.7322L13.6824 9.54193Z" fill="white"/>
</svg>
