<svg width="30" height="31" viewBox="0 0 30 31" fill="none" xmlns="http://www.w3.org/2000/svg">
<path d="M8.58035 17.0639V14.0026H11.906V17.0639H8.58035ZM10.315 25.632H10.7718H11.2285C11.2323 25.6569 11.2343 25.6826 11.2343 25.709C11.2343 25.9733 11.0361 26.1715 10.7718 26.1715C10.5075 26.1715 10.3092 25.9733 10.3092 25.709C10.3092 25.6826 10.3112 25.6569 10.315 25.632ZM21.421 17.0639H18.0954V14.0026H21.421V17.0639ZM18.7728 25.632H19.2295H19.6863C19.6901 25.6569 19.6921 25.6826 19.6921 25.709C19.6921 25.9733 19.4939 26.1715 19.2295 26.1715C18.9652 26.1715 18.767 25.9733 18.767 25.709C18.767 25.6826 18.769 25.6569 18.7728 25.632Z" fill="#404565" stroke="white" stroke-width="5"/>
</svg>
