<svg width="22" height="23" viewBox="0 0 22 23" fill="none" xmlns="http://www.w3.org/2000/svg">
<g clip-path="url(#clip0_71_128)">
<path d="M10.6279 22.75C9.71042 22.75 8.83053 22.4309 8.18179 21.8629C7.53304 21.2949 7.16858 20.5245 7.16858 19.7212C7.16858 19.6064 7.22064 19.4963 7.31332 19.4152C7.406 19.3341 7.5317 19.2885 7.66277 19.2885C7.79383 19.2885 7.91953 19.3341 8.01221 19.4152C8.10489 19.4963 8.15695 19.6064 8.15695 19.7212C8.15695 20.2949 8.41728 20.8452 8.88067 21.251C9.34406 21.6567 9.97255 21.8846 10.6279 21.8846C11.2832 21.8846 11.9117 21.6567 12.3751 21.251C12.8385 20.8452 13.0988 20.2949 13.0988 19.7212C13.0988 19.6064 13.1509 19.4963 13.2436 19.4152C13.3362 19.3341 13.4619 19.2885 13.593 19.2885C13.7241 19.2885 13.8498 19.3341 13.9424 19.4152C14.0351 19.4963 14.0872 19.6064 14.0872 19.7212C14.0872 20.5245 13.7227 21.2949 13.074 21.8629C12.4252 22.4309 11.5453 22.75 10.6279 22.75Z" fill="black"/>
<path d="M19.0291 18.4231H2.22674C1.40936 18.4231 0.25 17.8407 0.25 17.125C0.25 16.7451 0.932965 16.386 1.26209 16.1385C1.28286 16.1231 1.30501 16.1092 1.32831 16.0969C2.0756 15.5304 2.67498 14.8298 3.08579 14.0426C3.49661 13.2554 3.70926 12.4001 3.7093 11.5346V8.90386C3.7114 7.29782 4.44099 5.75809 5.73803 4.62245C7.03506 3.48681 8.79362 2.848 10.6279 2.84617C10.713 2.84475 10.798 2.85025 10.8819 2.86261C10.9457 2.87355 11.0063 2.89539 11.0605 2.92688C11.1146 2.95836 11.161 2.99889 11.1972 3.04612C11.2334 3.09336 11.2587 3.14638 11.2714 3.20215C11.2842 3.25793 11.2843 3.31536 11.2717 3.37117C11.2591 3.42697 11.234 3.48005 11.198 3.52737C11.1619 3.57469 11.1156 3.61532 11.0615 3.64694C11.0075 3.67855 10.9469 3.70053 10.8832 3.71162C10.8195 3.72271 10.7539 3.72268 10.6902 3.71155C9.9069 3.70665 9.13023 3.83721 8.40472 4.09574C7.67921 4.35427 7.01914 4.73568 6.46239 5.21809C5.90563 5.7005 5.46314 6.27442 5.16031 6.90691C4.85747 7.53941 4.70026 8.21804 4.69767 8.90386V11.5346C4.69785 12.536 4.44907 13.5254 3.96861 14.4342C3.48815 15.3429 2.78753 16.1492 1.91541 16.797C1.89978 16.8087 1.88327 16.8194 1.86599 16.8291C1.80004 16.8906 1.75611 16.9677 1.7396 17.0509C1.72309 17.1341 1.73473 17.2197 1.77307 17.2971C1.81142 17.3746 1.8748 17.4405 1.95541 17.4868C2.03602 17.5331 2.13034 17.5577 2.22674 17.5577H19.0291C19.1255 17.5576 19.2198 17.5327 19.3003 17.4863C19.3808 17.4398 19.444 17.3737 19.4822 17.2961C19.5203 17.2186 19.5317 17.133 19.5149 17.0498C19.4982 16.9667 19.454 16.8896 19.3878 16.8282C19.3714 16.8186 19.3556 16.8082 19.3404 16.797C18.4683 16.1492 17.7677 15.3429 17.2872 14.4342C16.8067 13.5254 16.558 12.536 16.5581 11.5346V10.6087C16.5581 10.4939 16.6102 10.3839 16.7029 10.3027C16.7956 10.2216 16.9213 10.176 17.0523 10.176C17.1834 10.176 17.3091 10.2216 17.4018 10.3027C17.4944 10.3839 17.5465 10.4939 17.5465 10.6087V11.5346C17.5465 12.4005 17.7593 13.2563 18.1705 14.0438C18.5817 14.8313 19.1816 15.5321 19.9295 16.0987C19.9519 16.1102 19.9731 16.1236 19.9927 16.1385C20.3229 16.386 21.0058 16.7442 21.0058 17.125C21.0058 17.8407 19.8465 18.4231 19.0291 18.4231Z" fill="black"/>
<path d="M17.5465 7.17308C19.73 7.17308 21.5 5.62329 21.5 3.71154C21.5 1.79978 19.73 0.25 17.5465 0.25C15.3631 0.25 13.593 1.79978 13.593 3.71154C13.593 5.62329 15.3631 7.17308 17.5465 7.17308Z" fill="#FF6D1C"/>
</g>
<defs>
<clipPath id="clip0_71_128">
<rect width="21.25" height="22.5" fill="white" transform="translate(0.25 0.25)"/>
</clipPath>
</defs>
</svg>
