<svg width="12" height="16" viewBox="0 0 12 16" fill="none" xmlns="http://www.w3.org/2000/svg">
<path d="M10.1049 4.53478C9.89153 1.99097 8.13201 0 5.99996 0C3.8679 0 2.10847 1.99097 1.89497 4.53486C0.814725 4.82147 0 6.05396 0 7.52666V12.9454C0 14.6296 1.06582 16 2.37587 16H9.62421C10.9342 16 12 14.6296 12 12.9454V7.52666C12 6.05396 11.1853 4.82147 10.1049 4.53478ZM5.99996 1.16743C7.58773 1.16743 8.9031 2.60456 9.13413 4.47176H2.86579C3.0969 2.60456 4.41219 1.16743 5.99996 1.16743ZM11.0469 12.9454C11.0469 13.9859 10.4087 14.8326 9.6242 14.8326H2.37586C1.59127 14.8326 0.952954 13.986 0.952954 12.9454V7.52666C0.952954 6.48591 1.59127 5.63919 2.37586 5.63919H9.6242C10.4087 5.63919 11.0469 6.48593 11.0469 7.52666V12.9454Z" fill="#404565"/>
</svg>
