<svg width="30" height="30" viewBox="0 0 30 30" fill="none" xmlns="http://www.w3.org/2000/svg">
<path d="M7.62272 6.4682L15 13.9995L22.3773 6.4682L23.4185 7.40582L15.9795 15L23.4185 22.5942L22.3773 23.5318L15 16.0004L7.62272 23.5318L6.58204 22.5942L14.0204 15L6.58204 7.40582L7.62272 6.4682Z" fill="white"/>
<path d="M15 9.59766C18.1169 9.59766 20.645 12.0165 20.645 14.9999C20.645 17.9834 18.1169 20.4027 15 20.4027C11.8831 20.4027 9.3556 17.9834 9.3556 14.9999C9.3556 12.0165 11.8831 9.59766 15 9.59766Z" fill="#FF6D1C"/>
<path d="M15 10.0546C17.8533 10.0546 20.1665 12.2682 20.1665 14.9999C20.1665 17.7306 17.8539 19.9453 15 19.9453C12.1473 19.9453 9.8335 17.7306 9.8335 14.9999C9.8335 12.2683 12.1473 10.0546 15 10.0546Z" fill="#FF6D1C"/>
<path d="M13.0748 16.8829H13.2094L13.9984 16.4709L14.1268 15.9902C13.939 15.8088 13.7445 15.5014 13.568 15.1229C13.5538 15.1251 13.5392 15.1262 13.5239 15.1262C13.3152 15.1262 13.1087 14.9091 13.0624 14.6411C13.0263 14.4311 13.0986 14.2525 13.2321 14.1848C13.0557 13.3235 12.9386 12.001 14.4882 11.674C15.418 11.478 15.75 12.165 15.7907 12.2402C16.3534 11.9381 16.7109 12.3913 16.8025 12.6311C16.9688 13.0647 16.9144 13.8714 16.8296 14.2276C16.9235 14.3131 16.9688 14.4663 16.9382 14.6411C16.8923 14.9048 16.6921 15.1192 16.4868 15.1262C16.3211 15.4743 16.0995 15.7731 15.8732 15.9902L16.0015 16.4709H16.0122L16.7797 16.8829H16.9251C17.8719 16.8829 18.6574 17.5493 18.7564 18.3943C17.8141 19.3493 16.4801 19.9453 15 19.9453C13.5199 19.9453 12.1845 19.3493 11.2423 18.3943C11.3413 17.5477 12.128 16.8829 13.0748 16.8829Z" fill="white"/>
<path d="M4.92272 0C7.64086 0 9.84543 2.10913 9.84543 4.71093C9.84543 7.31274 7.64086 9.42294 4.92272 9.42294C2.20457 9.42294 0 7.31274 0 4.71093C0 2.10913 2.20466 0 4.92272 0Z" fill="#FF6D1C"/>
<path d="M3.13388 6.57742H3.25887L3.99182 6.19468L4.11117 5.74803C3.93641 5.57913 3.75602 5.29329 3.59196 4.94245C3.57834 4.94461 3.56482 4.94515 3.55064 4.94515C3.35719 4.94515 3.16553 4.74326 3.12195 4.49418C3.08805 4.29931 3.15585 4.1331 3.27915 4.07027C3.1151 3.27018 3.00654 2.04123 4.44652 1.73759C5.31018 1.55512 5.61895 2.19395 5.65623 2.2638C6.17939 1.98281 6.51135 2.40402 6.59681 2.62703C6.75119 3.02982 6.70085 3.7785 6.62225 4.10982C6.70931 4.18937 6.75119 4.33176 6.72292 4.49418C6.68048 4.73886 6.49388 4.93814 6.30382 4.94461C6.15 5.26839 5.94359 5.54551 5.7337 5.74749L5.85306 6.19414H5.8632L6.57577 6.57688H6.71147C7.60847 6.57688 8.34931 7.22057 8.41776 8.02722C7.52583 8.88853 6.28972 9.42294 4.92272 9.42294C3.55627 9.42294 2.31867 8.88853 1.42674 8.02722C1.49463 7.21895 2.23688 6.57742 3.13388 6.57742Z" fill="white"/>
<path d="M25.0773 0C27.7966 0 30 2.10913 30 4.71093C30 7.31274 27.7966 9.42294 25.0773 9.42294C22.3591 9.42294 20.1557 7.31274 20.1557 4.71093C20.1557 2.10913 22.3591 0 25.0773 0Z" fill="#FF6D1C"/>
<path d="M23.2884 6.57742H23.4139L24.1469 6.19468L24.2662 5.74803C24.0915 5.57913 23.9111 5.29329 23.7464 4.94245C23.7334 4.94461 23.7199 4.94515 23.7057 4.94515C23.5122 4.94515 23.32 4.74326 23.277 4.49418C23.2431 4.29931 23.3109 4.1331 23.4342 4.07027C23.2701 3.27018 23.1616 2.04123 24.6016 1.73759C25.4652 1.55512 25.774 2.19395 25.8113 2.2638C26.3344 1.98281 26.6664 2.40402 26.7518 2.62703C26.9062 3.02982 26.8559 3.7785 26.7773 4.10982C26.8638 4.18937 26.9062 4.33176 26.878 4.49418C26.8355 4.73886 26.6489 4.93814 26.4589 4.94461C26.305 5.26839 26.0986 5.54551 25.8887 5.74749L26.0081 6.19414H26.0182L26.7309 6.57688H26.8666C27.7636 6.57688 28.5044 7.22057 28.5729 8.02722C27.681 8.88853 26.4443 9.42294 25.0773 9.42294C23.7103 9.42294 22.4738 8.88853 21.5819 8.02722C21.6503 7.21895 22.3914 6.57742 23.2884 6.57742Z" fill="white"/>
<path d="M4.92272 20.5771C7.64086 20.5771 9.84543 22.6862 9.84543 25.288C9.84543 27.8909 7.64086 30 4.92272 30C2.20457 30 0 27.8909 0 25.288C0 22.6862 2.20466 20.5771 4.92272 20.5771Z" fill="#FF6D1C"/>
<path d="M8.58078 28.4408C7.67984 29.3979 6.37452 30 4.92272 30C3.47091 30 2.1656 29.3979 1.26465 28.4408C1.42692 27.6796 2.16109 27.1009 3.03603 27.1009H3.16834L3.94148 26.6971L4.06703 26.226C3.88269 26.048 3.69263 25.7469 3.51955 25.3761C3.50537 25.3782 3.49129 25.3793 3.47654 25.3793C3.27239 25.3793 3.06993 25.1665 3.0241 24.904C2.98851 24.6988 3.05969 24.5234 3.19041 24.4573C3.01734 23.6134 2.90249 22.3174 4.42106 21.9968C5.33215 21.8052 5.65735 22.4781 5.69698 22.5517C6.24841 22.2556 6.59906 22.6995 6.68846 22.9344C6.85139 23.3594 6.79814 24.1493 6.7156 24.4984C6.80725 24.5817 6.85186 24.7323 6.8219 24.9039C6.7772 25.1621 6.58037 25.3722 6.3796 25.3792C6.21732 25.7208 5.99955 26.0131 5.7784 26.2259L5.90452 26.6969H5.91522L6.66686 27.1007H6.80997C7.68378 27.1007 8.41785 27.6812 8.58078 28.4408Z" fill="white"/>
<path d="M25.0773 20.5771C27.7966 20.5771 30 22.6862 30 25.288C30 27.8909 27.7966 30 25.0773 30C22.3591 30 20.1557 27.8909 20.1557 25.288C20.1557 22.6862 22.3591 20.5771 25.0773 20.5771Z" fill="#FF6D1C"/>
<path d="M28.7495 28.4262C27.848 29.392 26.5376 30 25.0773 30C23.6182 30 22.3071 29.3921 21.4062 28.4262C21.5974 27.6916 22.3196 27.1421 23.1758 27.1421H23.3093L24.0886 26.735L24.2153 26.2607C24.0298 26.081 23.8381 25.7778 23.6633 25.4043C23.6491 25.4064 23.6351 25.4075 23.6197 25.4075C23.4145 25.4075 23.2097 25.1931 23.1639 24.9284C23.1283 24.721 23.2001 24.5446 23.3314 24.478C23.1572 23.6269 23.0417 22.3207 24.5722 21.998C25.4902 21.8047 25.8188 22.483 25.8583 22.5572C26.4142 22.2589 26.7671 22.7066 26.8577 22.9431C27.0217 23.3714 26.9685 24.1677 26.8848 24.5196C26.9776 24.6041 27.0223 24.7551 26.9922 24.9283C26.947 25.1887 26.749 25.4004 26.5466 25.4074C26.3831 25.7517 26.1631 26.0468 25.9403 26.2606L26.067 26.7354H26.0777L26.8355 27.1425H26.9798C27.8354 27.1425 28.5583 27.6926 28.7495 28.4262Z" fill="white"/>
</svg>
