<svg width="35" height="18" viewBox="0 0 35 18" fill="none" xmlns="http://www.w3.org/2000/svg">
<path d="M15.1563 16.5625C14.2969 16.5625 13.5609 16.2563 12.9484 15.6438C12.3359 15.0313 12.0302 14.2958 12.0313 13.4375V4.0625C12.0313 3.20313 12.3375 2.46719 12.95 1.85469C13.5625 1.24219 14.2979 0.936461 15.1563 0.937503H19.8438C20.7031 0.937503 21.4391 1.24375 22.0516 1.85625C22.6641 2.46875 22.9698 3.20417 22.9688 4.0625V13.4375C22.9688 14.2969 22.6625 15.0328 22.05 15.6453C21.4375 16.2578 20.7021 16.5635 19.8438 16.5625H15.1563ZM0.312503 16.5625V13.4375H6.5625V10.3125H3.4375C2.57813 10.3125 1.84219 10.0063 1.22969 9.39375C0.61719 8.78125 0.311461 8.04584 0.312503 7.1875V4.0625C0.312503 3.20313 0.618753 2.46719 1.23125 1.85469C1.84375 1.24219 2.57917 0.936461 3.4375 0.937503H9.6875V4.0625H3.4375V7.1875H6.5625C7.42188 7.1875 8.15781 7.49375 8.77032 8.10625C9.38282 8.71875 9.68854 9.45417 9.6875 10.3125V13.4375C9.6875 14.2969 9.38125 15.0328 8.76875 15.6453C8.15625 16.2578 7.42084 16.5635 6.5625 16.5625H0.312503ZM25.3125 16.5625V13.4375H31.5625V10.3125H28.4375C27.5781 10.3125 26.8422 10.0063 26.2297 9.39375C25.6172 8.78125 25.3115 8.04584 25.3125 7.1875V4.0625C25.3125 3.20313 25.6187 2.46719 26.2313 1.85469C26.8438 1.24219 27.5792 0.936461 28.4375 0.937503H34.6875V4.0625H28.4375V7.1875H31.5625C32.4219 7.1875 33.1578 7.49375 33.7703 8.10625C34.3828 8.71875 34.6885 9.45417 34.6875 10.3125V13.4375C34.6875 14.2969 34.3813 15.0328 33.7688 15.6453C33.1562 16.2578 32.4208 16.5635 31.5625 16.5625H25.3125ZM15.1563 13.4375H19.8438V4.0625H15.1563V13.4375Z" fill="white"/>
</svg>
