<svg width="12" height="15" viewBox="0 0 12 15" fill="none" xmlns="http://www.w3.org/2000/svg">
<path d="M5.99077 7.45602C7.94714 7.45602 9.5332 5.78688 9.5332 3.72799C9.5332 1.66913 7.94716 0 5.99077 0C4.03436 0 2.44831 1.66913 2.44831 3.72801C2.44831 5.78688 4.03436 7.45602 5.99077 7.45602ZM10.6449 9.71767C9.81399 8.79543 9.53451 8.47885 8.01248 8.39192H3.9689C2.44687 8.47886 2.16739 8.79543 1.3365 9.71766C0.453996 10.671 -0.248849 11.878 0.0843342 13.3747C0.453996 14.3534 1.45284 14.5801 2.39732 14.5801H9.58407C10.5285 14.5801 11.5281 14.3534 11.8977 13.3747C12.2309 11.878 11.5281 10.671 10.6449 9.71766" fill="#404565"/>
</svg>
